<?xml version="1.0" standalone="no"?>
<!DOCTYPE svg PUBLIC "-//W3C//DTD SVG 20010904//EN"
 "http://www.w3.org/TR/2001/REC-SVG-20010904/DTD/svg10.dtd">
<svg version="1.0" xmlns="http://www.w3.org/2000/svg"
 width="501.000000pt" height="128.000000pt" viewBox="0 0 501.000000 128.000000"
 preserveAspectRatio="xMidYMid meet">

<g transform="translate(0.000000,128.000000) scale(0.100000,-0.100000)"
fill="#000000" stroke="none">
<path d="M441 1209 c-70 -14 -166 -64 -214 -111 -24 -24 -57 -71 -73 -104 -25
-51 -29 -70 -29 -144 0 -72 4 -94 28 -145 30 -64 84 -127 130 -151 15 -8 27
-19 27 -24 0 -6 -65 -108 -145 -228 l-145 -217 167 -3 c92 -1 172 -1 178 2 6
2 76 110 155 240 80 130 148 236 153 236 4 0 7 -108 7 -240 l0 -240 151 0 151
0 -4 217 c-3 202 -5 221 -25 259 -35 65 -69 100 -125 128 -47 24 -63 26 -172
26 -95 0 -128 4 -155 18 -96 48 -99 162 -6 206 24 12 65 16 152 17 65 0 132 6
150 12 90 34 162 120 178 215 l7 42 -249 -1 c-136 -1 -268 -5 -292 -10z"/>
<path d="M1320 995 l0 -215 65 0 65 0 0 91 c0 105 5 106 60 10 32 -56 38 -61
70 -61 33 0 37 4 80 78 l45 77 3 -97 3 -98 64 0 65 0 0 215 0 216 -62 -3 -62
-3 -63 -105 c-35 -58 -66 -106 -70 -107 -5 -2 -37 47 -73 107 l-65 109 -62 1
-63 0 0 -215z"/>
<path d="M1920 994 l0 -216 148 4 c164 4 198 14 232 71 24 39 26 116 4 158
-22 44 -83 69 -171 69 l-73 0 0 65 0 65 -70 0 -70 0 0 -216z m244 -30 c20 -19
20 -34 0 -62 -12 -17 -25 -22 -60 -22 l-44 0 0 50 0 50 44 0 c27 0 51 -6 60
-16z"/>
<path d="M2370 995 l0 -215 70 0 70 0 0 215 0 215 -70 0 -70 0 0 -215z"/>
<path d="M1412 515 c-78 -24 -112 -72 -112 -157 0 -56 16 -90 58 -124 l22 -19
-35 -52 c-19 -29 -35 -55 -35 -58 0 -3 33 -5 73 -5 l72 0 33 50 c21 32 39 50
52 50 17 0 20 -7 20 -50 l0 -50 70 0 70 0 0 215 0 215 -122 -1 c-73 0 -141 -6
-166 -14z m148 -150 l0 -55 -44 0 c-27 0 -51 6 -60 16 -39 38 -1 94 64 94 l40
0 0 -55z"/>
<path d="M1780 315 l0 -215 65 0 64 0 3 92 3 93 45 -73 c42 -68 47 -72 80 -72
33 0 38 4 74 65 21 36 42 68 47 71 5 3 9 -34 9 -85 l0 -91 65 0 65 0 0 215 0
215 -60 0 -60 0 -67 -115 c-51 -86 -71 -111 -79 -102 -6 7 -39 58 -73 115
l-63 102 -59 0 -59 0 0 -215z"/>
<path d="M2446 328 c-49 -111 -90 -208 -93 -215 -4 -10 13 -13 69 -13 l75 0 9
33 10 32 86 3 86 3 13 -36 13 -35 74 0 c66 0 73 2 67 18 -3 9 -45 106 -92 215
l-86 197 -71 0 -72 0 -88 -202z m193 -40 c1 -14 -7 -18 -32 -18 -19 0 -36 3
-39 6 -4 3 3 28 15 56 l21 51 17 -39 c10 -21 18 -47 18 -56z"/>
<path d="M2966 413 c-8 -148 -19 -191 -50 -199 -18 -4 -25 -15 -30 -42 -13
-79 -11 -82 44 -82 106 0 135 41 153 216 l11 114 48 0 48 0 0 -160 0 -160 70
0 70 0 0 215 0 215 -179 0 -179 0 -6 -117z"/>
<path d="M3410 315 l0 -215 145 0 c126 0 151 3 185 20 49 25 70 64 70 129 0
104 -34 133 -165 141 l-90 5 -3 68 -3 67 -69 0 -70 0 0 -215z m238 -31 c26
-18 29 -56 6 -74 -8 -8 -34 -14 -57 -14 -42 -1 -42 -1 -45 38 -2 21 -1 44 2
52 7 19 66 18 94 -2z"/>
<path d="M3870 315 l0 -215 173 -2 172 -3 3 -43 3 -42 65 0 64 0 0 100 0 100
-30 0 -30 0 0 160 0 160 -70 0 -70 0 0 -160 0 -160 -70 0 -70 0 0 160 0 160
-70 0 -70 0 0 -215z"/>
<path d="M4400 315 l0 -215 145 0 c126 0 151 3 185 20 49 25 70 64 70 129 0
104 -34 133 -165 141 l-90 5 -3 68 -3 67 -69 0 -70 0 0 -215z m238 -31 c26
-18 29 -56 6 -74 -8 -8 -34 -14 -57 -14 -42 -1 -42 -1 -45 38 -2 21 -1 44 2
52 7 19 66 18 94 -2z"/>
<path d="M4850 315 l0 -215 70 0 70 0 0 215 0 215 -70 0 -70 0 0 -215z"/>
</g>
</svg>
